<svg width="1521" height="135" viewBox="0 0 1521 135" fill="none" xmlns="http://www.w3.org/2000/svg">
<path d="M52 37.3767V135H0V37.3767L26 0L52 37.3767Z" fill="#C7AA8C"/>
<rect x="52" y="52" width="28" height="31" fill="#C7AA8C"/>
<path d="M132 37.3767V135H80V37.3767L106 0L132 37.3767Z" fill="#C7AA8C"/>
<rect x="132" y="52" width="28" height="31" fill="#C7AA8C"/>
<path d="M211 37.3767V135H160V37.3767L185.5 0L211 37.3767Z" fill="#C7AA8C"/>
<rect x="211" y="52" width="29" height="31" fill="#C7AA8C"/>
<path d="M292 37.3767V135H240V37.3767L266 0L292 37.3767Z" fill="#C7AA8C"/>
<rect x="292" y="52" width="28" height="31" fill="#C7AA8C"/>
<path d="M372 37.3767V135H320V37.3767L346 0L372 37.3767Z" fill="#C7AA8C"/>
<rect x="372" y="52" width="29" height="31" fill="#C7AA8C"/>
<path d="M452 37.3767V135H401V37.3767L426.5 0L452 37.3767Z" fill="#C7AA8C"/>
<rect x="452" y="52" width="29" height="31" fill="#C7AA8C"/>
<path d="M532 37.3767V135H481V37.3767L506.5 0L532 37.3767Z" fill="#C7AA8C"/>
<rect x="532" y="52" width="29" height="31" fill="#C7AA8C"/>
<path d="M611 37.3767V135H561V37.3767L586 0L611 37.3767Z" fill="#C7AA8C"/>
<rect x="611" y="52" width="29" height="31" fill="#C7AA8C"/>
<path d="M692 37.3767V135H640V37.3767L666 0L692 37.3767Z" fill="#C7AA8C"/>
<rect x="692" y="52" width="28" height="31" fill="#C7AA8C"/>
<path d="M772 37.3767V135H720V37.3767L746 0L772 37.3767Z" fill="#C7AA8C"/>
<rect x="772" y="52" width="29" height="31" fill="#C7AA8C"/>
<path d="M852 37.3767V135H801V37.3767L826.5 0L852 37.3767Z" fill="#C7AA8C"/>
<rect x="852" y="52" width="29" height="31" fill="#C7AA8C"/>
<path d="M932 37.3767V135H881V37.3767L906.5 0L932 37.3767Z" fill="#C7AA8C"/>
<rect x="932" y="52" width="29" height="31" fill="#C7AA8C"/>
<path d="M1012 37.3767V135H961V37.3767L986.5 0L1012 37.3767Z" fill="#C7AA8C"/>
<rect x="1012" y="52" width="29" height="31" fill="#C7AA8C"/>
<path d="M1092 37.3767V135H1041V37.3767L1066.5 0L1092 37.3767Z" fill="#C7AA8C"/>
<rect x="1092" y="52" width="29" height="31" fill="#C7AA8C"/>
<path d="M1172 37.3767V135H1121V37.3767L1146.5 0L1172 37.3767Z" fill="#C7AA8C"/>
<rect x="1172" y="52" width="29" height="31" fill="#C7AA8C"/>
<path d="M1252 37.3767V135H1201V37.3767L1226.5 0L1252 37.3767Z" fill="#C7AA8C"/>
<rect x="1252" y="52" width="29" height="31" fill="#C7AA8C"/>
<path d="M1332 37.3767V135H1281V37.3767L1306.5 0L1332 37.3767Z" fill="#C7AA8C"/>
<rect x="1332" y="52" width="29" height="31" fill="#C7AA8C"/>
<path d="M1412 37.3767V135H1361V37.3767L1386.5 0L1412 37.3767Z" fill="#C7AA8C"/>
<rect x="1412" y="52" width="29" height="31" fill="#C7AA8C"/>
<path d="M1492 37.3767V135H1441V37.3767L1466.5 0L1492 37.3767Z" fill="#C7AA8C"/>
<rect x="1492" y="52" width="29" height="31" fill="#C7AA8C"/>
</svg>
