<svg width="32" height="47" viewBox="0 0 32 47" fill="none" xmlns="http://www.w3.org/2000/svg">
<g clip-path="url(#clip0_238_326)">
<path d="M26.381 5.95766C29.3821 11.6256 30.5011 17.5697 29.3384 22.9108L18.4129 23.9642L21.5623 18.5092C21.9763 17.7918 21.4969 16.7394 20.4913 16.1588C19.4857 15.5782 18.3347 15.6893 17.9203 16.4065L6.49797 36.1906C3.48512 29.2604 3.30389 22.0977 6.67236 16.2633C10.4142 9.78235 17.7647 6.27348 26.381 5.95766ZM28.1647 26.4934C27.9097 27.0654 27.6277 27.6289 27.3103 28.1787C23.9418 34.013 17.6482 37.4374 10.14 38.2933L16.3065 27.6126C16.406 27.6172 16.5056 27.6174 16.6031 27.608L28.1647 26.4934Z" fill="#3A7D44"/>
</g>
<defs>
<clipPath id="clip0_238_326">
<rect width="32" height="47" fill="white"/>
</clipPath>
</defs>
</svg>
